<svg xmlns="http://www.w3.org/2000/svg" xmlns:xlink="http://www.w3.org/1999/xlink" version="1.1" style="" xml:space="preserve" width="165" height="91"><rect id="backgroundrect" width="100%" height="100%" x="0" y="0" fill="none" stroke="none" class="" style=""/>
<style type="text/css">
	.st0{fill:#05B3DD;}
	.st1{fill:#ECCC68;}
	.st2{fill:#12B0DB;}
	.st3{fill:#EACA68;}
	.st4{fill:#13AFD9;}
</style>









<g class="currentLayer" style=""><title>Layer 1</title><g id="svg_1" class="">
	<path class="st0" d="M31.600003814697267,17.699997711181638 c-1.9,-0.5 -3.9,-0.4 -5.9,0.4 c-7.6,2.9 -7.9,11.2 -7.5,18.2 c-2.4,0 -4.4,0 -6.4,0 c0,1.4 0,2.6 0,4.1 c2.1,0 4.1,0 6.2,0 c0,2.1 0,3.8 0,5.7 c-2.5,0 -4.7,-0.1 -6.9,0 c-6.3,0.2 -11.1,5.2 -11,11.5 c0.1,6.2 5,11.1 11.1,11.2 c6.2,0 11.1,-4.9 11.2,-11.3 c0,-2.3 0,-4.6 0,-7 c2.2,0 4.4,-0.2 6.5,-0.30000000000000004 c0,-1.5 0,-2.7 0,-4.2 c-2.2,0 -4.3,0 -6.4,0 c0,-1.9 0,-3.6 0,-5.7 c2.6,0 5,0.1 7.4,0 c5.7,-0.2 10.3,-4.7 10.6,-10.4 C40.900003814697264,24.299997711181646 36.80000381469726,18.999997711181635 31.600003814697267,17.699997711181638 zM18.100003814697267,58.09999771118164 c-0.2,3.6 -3.2,6.3 -6.7,6.5 c-3.4,0.1 -6.5,-2.5 -7.1,-6.1 c-0.6000000000000001,-3.2 1.5,-6.7 4.8,-7.7 c0.6000000000000001,-0.2 1.1,-0.4 1.7000000000000002,-0.4 c2.3,0 4.7,0 7.4,0 C18.200003814697265,53.09999771118164 18.300003814697266,55.59999771118164 18.100003814697267,58.09999771118164 zM29.70000381469727,36.09999771118164 c-2.3,0.2 -4.6,0 -7.3,0 c0,-2.7 -0.1,-5.1 0,-7.4 c0.30000000000000004,-4.1 3.5,-7.1 7.2,-6.9 c3.6,0.2 6.6,3.2 6.7,6.8 C36.500003814697266,32.59999771118164 33.80000381469726,35.69999771118164 29.70000381469727,36.09999771118164 z" id="svg_2"/>
</g><path class="st1" d="M61.500003814697266,17.599997711181643 c0,0.7000000000000001 -0.1,1.3 -0.4,1.9 c-0.4,1 -1.2,1.8 -2.2,2.2 c-0.2,0.1 -0.4,0.2 -0.5,0.2 c-0.2,0.1 -0.4,0.1 -0.6000000000000001,0.2 c0,0 0,0 0,0 c-0.1,0 -0.2,0 -0.30000000000000004,0 c0,0 0,0 -0.1,0 c0,0 -0.1,0 -0.1,0 c-0.1,0 -0.1,0 -0.2,0 c-0.1,0 -0.1,0 -0.2,0 c0,0 -0.1,0 -0.1,0 c0,0 0,0 -0.1,0 c-0.1,0 -0.2,0 -0.30000000000000004,0 c-0.1,0 -0.1,0 -0.2,0 c-0.2,0 -0.4,-0.1 -0.7000000000000001,-0.2 c-0.1,0 -0.2,-0.1 -0.4,-0.2 c0,0 -0.1,0 -0.1,-0.1 c-0.1,-0.1 -0.2,-0.1 -0.30000000000000004,-0.2 c-0.5,-0.30000000000000004 -0.9,-0.7000000000000001 -1.3,-1.1 c-0.2,-0.30000000000000004 -0.4,-0.6000000000000001 -0.5,-0.9 c-0.2,-0.6000000000000001 -0.4,-1.2 -0.4,-1.8 c0,-2.5 2,-4.5 4.5,-4.5 S61.500003814697266,15.199997711181638 61.500003814697266,17.599997711181643 z" id="svg_3"/><path class="st1" d="M84.70000381469727,10.199997711181638 c0,1.5 -0.30000000000000004,2.9 -0.9,4.2 c-1,2.2 -2.8,4 -5,5 c-0.4,0.2 -0.8,0.30000000000000004 -1.2,0.5 c-0.5,0.2 -1,0.30000000000000004 -1.5,0.30000000000000004 c0,0 0,0 0,0 c-0.2,0 -0.5,0.1 -0.7000000000000001,0.1 c-0.1,0 -0.1,0 -0.2,0 c-0.1,0 -0.2,0 -0.2,0 c-0.2,0 -0.30000000000000004,0 -0.5,0 c-0.2,0 -0.30000000000000004,0 -0.5,0 c-0.1,0 -0.1,0 -0.2,0 c-0.1,0 -0.1,0 -0.2,0 c-0.30000000000000004,0 -0.5,-0.1 -0.8,-0.1 c-0.1,0 -0.2,0 -0.4,-0.1 c-0.5,-0.1 -1,-0.2 -1.5,-0.4 c-0.30000000000000004,-0.1 -0.6000000000000001,-0.2 -0.8,-0.30000000000000004 c-0.1,0 -0.2,-0.1 -0.30000000000000004,-0.1 c-0.2,-0.1 -0.5,-0.2 -0.7000000000000001,-0.4 c-1.1,-0.7000000000000001 -2.1,-1.5 -2.9,-2.6 c-0.5,-0.6000000000000001 -0.9,-1.3 -1.2,-2 c-0.6000000000000001,-1.3 -0.9,-2.7 -0.9,-4.1 c0,-5.6 4.6,-10.2 10.2,-10.2 S84.70000381469727,4.5999977111816435 84.70000381469727,10.199997711181638 z" id="svg_4"/><path class="st1" d="M66.50000381469727,23.099997711181643 c0,0.30000000000000004 -0.1,0.6000000000000001 -0.2,0.9 c-0.2,0.5 -0.6000000000000001,0.8 -1,1 c-0.1,0 -0.2,0.1 -0.30000000000000004,0.1 c-0.1,0 -0.2,0.1 -0.30000000000000004,0.1 c0,0 0,0 0,0 c-0.1,0 -0.1,0 -0.2,0 c0,0 0,0 0,0 c0,0 0,0 0,0 c0,0 -0.1,0 -0.1,0 c0,0 -0.1,0 -0.1,0 c0,0 0,0 0,0 c0,0 0,0 0,0 c-0.1,0 -0.1,0 -0.2,0 c0,0 0,0 -0.1,0 c-0.1,0 -0.2,-0.1 -0.30000000000000004,-0.1 c-0.1,0 -0.1,0 -0.2,-0.1 c0,0 0,0 -0.1,0 c0,0 -0.1,-0.1 -0.1,-0.1 c-0.2,-0.1 -0.4,-0.30000000000000004 -0.6000000000000001,-0.5 c-0.1,-0.1 -0.2,-0.30000000000000004 -0.2,-0.4 c-0.1,-0.30000000000000004 -0.2,-0.5 -0.2,-0.9 c0,-1.2 0.9,-2.1 2.1,-2.1 C65.60000381469726,20.999997711181635 66.50000381469727,21.89999771118164 66.50000381469727,23.099997711181643 z" id="svg_5"/><path class="st1" d="M164.50000381469727,81.69999771118165 c0,1.3 -0.30000000000000004,2.6 -0.8,3.7 c-0.9,1.9 -2.4,3.5 -4.4,4.4 c-0.30000000000000004,0.2 -0.7000000000000001,0.30000000000000004 -1.1,0.4 c-0.4,0.1 -0.8,0.2 -1.3,0.30000000000000004 c0,0 0,0 0,0 c-0.2,0 -0.4,0.1 -0.7000000000000001,0.1 c0,0 -0.1,0 -0.1,0 c-0.1,0 -0.1,0 -0.2,0 c-0.1,0 -0.30000000000000004,0 -0.4,0 c-0.1,0 -0.30000000000000004,0 -0.4,0 c-0.1,0 -0.1,0 -0.2,0 c0,0 -0.1,0 -0.1,0 c-0.2,0 -0.5,0 -0.7000000000000001,-0.1 c-0.1,0 -0.2,0 -0.30000000000000004,-0.1 c-0.5,-0.1 -0.9,-0.2 -1.3,-0.4 c-0.2,-0.1 -0.5,-0.2 -0.7000000000000001,-0.30000000000000004 c-0.1,0 -0.2,-0.1 -0.2,-0.1 c-0.2,-0.1 -0.4,-0.2 -0.6000000000000001,-0.30000000000000004 c-1,-0.6000000000000001 -1.8,-1.4 -2.5,-2.3 c-0.4,-0.5 -0.8,-1.1 -1,-1.8 c-0.5,-1.1 -0.8,-2.3 -0.8,-3.6 c0,-4.9 4,-9 9,-9 S164.50000381469727,76.79999771118165 164.50000381469727,81.69999771118165 z" id="svg_6"/><path class="st1" d="M142.50000381469727,75.89999771118164 c0,0.5 -0.1,0.9 -0.30000000000000004,1.3 c-0.30000000000000004,0.7000000000000001 -0.8,1.2 -1.5,1.5 c-0.1,0.1 -0.2,0.1 -0.4,0.1 c-0.1,0 -0.30000000000000004,0.1 -0.4,0.1 c0,0 0,0 0,0 c-0.1,0 -0.2,0 -0.2,0 c0,0 0,0 0,0 c0,0 0,0 -0.1,0 c0,0 -0.1,0 -0.1,0 c0,0 -0.1,0 -0.1,0 c0,0 0,0 -0.1,0 c0,0 0,0 0,0 c-0.1,0 -0.2,0 -0.2,0 c0,0 -0.1,0 -0.1,0 c-0.2,0 -0.30000000000000004,-0.1 -0.5,-0.1 c-0.1,0 -0.2,-0.1 -0.30000000000000004,-0.1 c0,0 -0.1,0 -0.1,0 c-0.1,0 -0.1,-0.1 -0.2,-0.1 c-0.30000000000000004,-0.2 -0.6000000000000001,-0.5 -0.9,-0.8 c-0.1,-0.2 -0.30000000000000004,-0.4 -0.4,-0.6000000000000001 c-0.2,-0.4 -0.30000000000000004,-0.8 -0.30000000000000004,-1.3 c0,-1.7000000000000002 1.4,-3.1 3.1,-3.1 S142.50000381469727,74.19999771118165 142.50000381469727,75.89999771118164 z" id="svg_7"/><g id="svg_8" class="">
	<path class="st2" d="M28.900003814697264,50.499997711181635 c0,0 0,-3.1 0,-4.5 c-2.2,0 -4.3,0 -6.4,0 c0,-1.9 0,-3.5 0,-5.5 c2.6,0 5,0.1 7.4,0 c5.7,-0.2 10.3,-4.7 10.6,-10.4 c0.30000000000000004,-5.6 -3.7,-10.9 -8.9,-12.2 c-1.9,-0.5 -3.9,-0.4 -5.9,0.4 c-7.6,2.9 -7.9,11.2 -7.5,18.2 c-2.4,0 -4.4,0 -6.4,0 c0,1.4 0,2.6 0,4.1 c2.1,0 4.1,0 6.2,0 c0,2.1 0,3.7 0,5.6 c-2.5,0 -4.9,0 -7.1,0.1 c-6.3,0.2 -10.9,5.3 -10.9,11.7 c0.1,6.2 5,11.1 11.1,11.2 c6.2,0 11.1,-4.9 11.2,-11.3 c0,-2.3 0.1,-4.8 0.1,-7.2 L28.900003814697264,50.499997711181635 zM18.100003814697267,58.299997711181646 c-0.2,3.6 -3.2,6.3 -6.7,6.5 c-3.4,0.1 -6.5,-2.5 -7.1,-6.1 c-0.6000000000000001,-3.2 1.5,-6.7 4.8,-7.7 c0.6000000000000001,-0.2 1.1,-0.4 1.7000000000000002,-0.4 c2.3,0 4.6,0 7.3,0 C18.100003814697267,53.299997711181646 18.300003814697266,55.799997711181646 18.100003814697267,58.299997711181646 zM29.70000381469727,36.19999771118164 c-2.3,0.2 -4.6,0 -7.3,0 c0,-2.7 -0.1,-5.1 0,-7.4 c0.30000000000000004,-4.1 3.5,-7.1 7.2,-6.9 c3.6,0.2 6.6,3.2 6.7,6.8 C36.500003814697266,32.69999771118164 33.80000381469726,35.89999771118164 29.70000381469727,36.19999771118164 z" id="svg_9"/>
</g><g id="svg_10" class="">
	<path class="st3" d="M121.50000381469727,42.299997711181646 h2.8 l6.8,17 h-3.9 l-1.3,-3.6 h-6 l-1.3,3.6 h-3.8 L121.50000381469727,42.299997711181646 zM122.80000381469728,47.299997711181646 l-1.9,5.3 h3.8 L122.80000381469728,47.299997711181646 z" id="svg_11"/>
	<path class="st3" d="M132.70000381469725,42.299997711181646 h5.2 l3.6,11.1 h0 l3.6,-11.1 h5.2 v17 h-3.4 v-13 h0 l-4.1,13 h-2.6 l-3.9,-13 h0 v13 h-3.4 V42.299997711181646 z" id="svg_12"/>
	<path class="st3" d="M153.50000381469727,42.299997711181646 h10.6 v3.5 h-7.1 v3.2 h6.7 v3.5 h-6.7 v3.5 h7.5 v3.5 h-11 V42.299997711181646 z" id="svg_13"/>
</g><g id="svg_14" class="">
	<path class="st4" d="M83.60000381469726,55.09999771118164 c-1.3,2.8 -5,4.7 -8.1,4.2 c-4.5,-0.7000000000000001 -7.7,-5.4 -6.9,-10.2 c0.6000000000000001,-3.3 2.2,-5.6 5.3,-6.9 c2.1,-0.8 4.1,-0.6000000000000001 6.1,0.4 c2.9,1.4 5.2,5.6 4.5,9.3 c-4.1,0 -8.2,0 -12.3,0 c-0.1,1.4 1.5,3 2.5,3.4 c1.6,0.7000000000000001 3.9,0.5 5.8,-1.7000000000000002 C81.50000381469727,54.09999771118164 82.50000381469727,54.59999771118164 83.60000381469726,55.09999771118164 zM72.50000381469727,48.499997711181635 c2.7,0 5.5,0 8.2,0 c-0.9,-2.3 -2.8,-3.2 -4.4,-3.1 C74.20000381469727,45.499997711181635 72.70000381469727,47.19999771118164 72.50000381469727,48.499997711181635 z" id="svg_15"/>
	<path class="st4" d="M51.70000381469727,59.19999771118164 c-1.4,0 -2.7,0 -4.1,0 c0,-7.2 0,-14.4 0,-21.6 c4.5,0 9.1,0 13.6,0 c0,1.2 0,2.4 0,3.7 c-3.2,0 -6.3,0 -9.5,0 c0,1.8 0,3.5 0,5.3 c2.5,0 5,0 7.6,0 c0,1.3 0,2.5 0,3.7 c-2.5,0 -5,0 -7.6,0 C51.70000381469727,53.299997711181646 51.70000381469727,56.19999771118164 51.70000381469727,59.19999771118164 z" id="svg_16"/>
	<path class="st4" d="M92.00000381469727,53.499997711181635 c-1.3,2 -2.4,3.9 -3.6,5.7 c-1.5,0 -2.9,0 -4.5,0 c2,-3 3.9,-5.8 5.8,-8.7 c-1.9,-2.8 -3.7,-5.6 -5.6,-8.4 c1.6,0 3.1,0 4.6,0 c1.2,1.6 2.2,3.5 3.4,5.3 c1.1,-1.8 2.2,-3.5 3.3,-5.3 c1.5,0 3,0 4.6,0 c-1.9,2.8 -3.7,5.5 -5.6,8.3 c1.9,2.9 3.9,5.8 5.8,8.8 c-1.6,0 -3.1,0 -4.7,0 C94.40000381469727,57.39999771118164 93.30000381469726,55.499997711181635 92.00000381469727,53.499997711181635 z" id="svg_17"/>
	<path class="st4" d="M100.20000381469727,57.09999771118164 c0.6000000000000001,-0.9 1.1,-1.7000000000000002 1.6,-2.5 c0.1,-0.1 0.2,-0.1 0.30000000000000004,-0.2 c1,0.6000000000000001 2,1.2 3.1,1.5 c0.9,0.30000000000000004 1.9,0.4 2.8,0.30000000000000004 c1.1,-0.1 1.7000000000000002,-0.8 1.5,-1.8 c-0.1,-0.7000000000000001 -0.7000000000000001,-1.1 -1.3,-1.3 c-1.2,-0.5 -2.5,-0.8 -3.8,-1.3 c-1.4,-0.5 -2.7,-1.3 -3.3,-2.9 c-1,-2.9 0.5,-5.9 3.3,-6.8 c2.5,-0.8 6.2,-0.1 8.4,1.6 c-0.5,1 -1,1.9 -1.6,3 c-1.1,-0.6000000000000001 -2.2,-1.2 -3.5,-1.4 c-0.6000000000000001,-0.1 -1.1,-0.2 -1.7000000000000002,-0.1 c-0.7000000000000001,0.1 -1.2,0.5 -1.4,1.2 c-0.2,0.5 0.2,1.2 0.9,1.6 c0.8,0.4 1.6,0.7000000000000001 2.4,1 c1.2,0.4 2.3,0.8 3.4,1.5 c1.7000000000000002,1.1 2.1,2.8 1.8,4.7 c-0.30000000000000004,1.8 -1.2,3.1 -2.9,3.8 c-2.8,1.1 -5.5,0.7000000000000001 -8.1,-0.4 C101.60000381469726,58.09999771118164 100.90000381469727,57.59999771118164 100.20000381469727,57.09999771118164 z" id="svg_18"/>
	<path class="st4" d="M62.70000381469727,37.59999771118164 c1.4,0 2.7,0 3.9,0 c0.1,0.7000000000000001 0.1,20.8 0,21.6 c-1.3,0 -2.6,0 -4,0 C62.70000381469727,51.999997711181635 62.70000381469727,44.799997711181646 62.70000381469727,37.59999771118164 z" id="svg_19"/>
</g></g></svg>